<mxfile host="app.diagrams.net" modified="2023-10-03T09:17:29.940Z" agent="Mozilla/5.0 (Windows NT 10.0; Win64; x64) AppleWebKit/537.36 (KHTML, like Gecko) Chrome/116.0.0.0 Safari/537.36 OPR/102.0.0.0" etag="2vhevArRr1jpI8_EQd4g" version="22.0.1" type="github">
  <diagram id="C5RBs43oDa-KdzZeNtuy" name="Page-1">
    <mxGraphModel dx="996" dy="525" grid="1" gridSize="10" guides="1" tooltips="1" connect="1" arrows="1" fold="1" page="1" pageScale="1" pageWidth="827" pageHeight="1169" math="0" shadow="0">
      <root>
        <mxCell id="WIyWlLk6GJQsqaUBKTNV-0" />
        <mxCell id="WIyWlLk6GJQsqaUBKTNV-1" parent="WIyWlLk6GJQsqaUBKTNV-0" />
        <mxCell id="ZN-Y_XalxhHWIrU3HRFX-1" value="" style="rounded=0;whiteSpace=wrap;html=1;rotation=90;fillColor=#190033;" parent="WIyWlLk6GJQsqaUBKTNV-1" vertex="1">
          <mxGeometry x="107.5" y="260" width="621.25" height="401.25" as="geometry" />
        </mxCell>
        <mxCell id="ZN-Y_XalxhHWIrU3HRFX-18" style="edgeStyle=orthogonalEdgeStyle;rounded=0;orthogonalLoop=1;jettySize=auto;html=1;exitX=0.5;exitY=0.5;exitDx=0;exitDy=0;exitPerimeter=0;entryX=0;entryY=0.5;entryDx=0;entryDy=0;strokeColor=#00FF00;" parent="WIyWlLk6GJQsqaUBKTNV-1" source="ZN-Y_XalxhHWIrU3HRFX-3" target="ZN-Y_XalxhHWIrU3HRFX-8" edge="1">
          <mxGeometry relative="1" as="geometry" />
        </mxCell>
        <mxCell id="ZN-Y_XalxhHWIrU3HRFX-21" style="edgeStyle=orthogonalEdgeStyle;rounded=0;orthogonalLoop=1;jettySize=auto;html=1;exitX=0.5;exitY=0.5;exitDx=0;exitDy=0;exitPerimeter=0;entryX=0;entryY=0.5;entryDx=0;entryDy=0;strokeColor=#00FF00;" parent="WIyWlLk6GJQsqaUBKTNV-1" source="ZN-Y_XalxhHWIrU3HRFX-3" target="ZN-Y_XalxhHWIrU3HRFX-9" edge="1">
          <mxGeometry relative="1" as="geometry">
            <Array as="points">
              <mxPoint x="280" y="230" />
              <mxPoint x="280" y="295" />
            </Array>
          </mxGeometry>
        </mxCell>
        <mxCell id="ZN-Y_XalxhHWIrU3HRFX-22" style="edgeStyle=orthogonalEdgeStyle;rounded=0;orthogonalLoop=1;jettySize=auto;html=1;exitX=0.5;exitY=0.5;exitDx=0;exitDy=0;exitPerimeter=0;entryX=0;entryY=0.5;entryDx=0;entryDy=0;strokeColor=#00FF00;" parent="WIyWlLk6GJQsqaUBKTNV-1" source="ZN-Y_XalxhHWIrU3HRFX-3" target="ZN-Y_XalxhHWIrU3HRFX-10" edge="1">
          <mxGeometry relative="1" as="geometry">
            <Array as="points">
              <mxPoint x="290" y="230" />
              <mxPoint x="290" y="370" />
            </Array>
          </mxGeometry>
        </mxCell>
        <mxCell id="ZN-Y_XalxhHWIrU3HRFX-23" style="edgeStyle=orthogonalEdgeStyle;rounded=0;orthogonalLoop=1;jettySize=auto;html=1;exitX=0.5;exitY=0.5;exitDx=0;exitDy=0;exitPerimeter=0;entryX=0;entryY=0.5;entryDx=0;entryDy=0;jumpStyle=none;strokeColor=#00FF00;" parent="WIyWlLk6GJQsqaUBKTNV-1" source="ZN-Y_XalxhHWIrU3HRFX-3" target="ZN-Y_XalxhHWIrU3HRFX-15" edge="1">
          <mxGeometry relative="1" as="geometry">
            <Array as="points">
              <mxPoint x="300" y="230" />
              <mxPoint x="300" y="635" />
            </Array>
          </mxGeometry>
        </mxCell>
        <mxCell id="ZN-Y_XalxhHWIrU3HRFX-3" value="STUDENT" style="shape=umlActor;verticalLabelPosition=bottom;verticalAlign=top;html=1;outlineConnect=0;fontFamily=Helvetica;" parent="WIyWlLk6GJQsqaUBKTNV-1" vertex="1">
          <mxGeometry x="130" y="200" width="30" height="60" as="geometry" />
        </mxCell>
        <mxCell id="ZN-Y_XalxhHWIrU3HRFX-19" style="edgeStyle=orthogonalEdgeStyle;rounded=0;orthogonalLoop=1;jettySize=auto;html=1;exitX=0.5;exitY=0.5;exitDx=0;exitDy=0;exitPerimeter=0;entryX=0;entryY=0.5;entryDx=0;entryDy=0;strokeColor=#00FF00;" parent="WIyWlLk6GJQsqaUBKTNV-1" source="ZN-Y_XalxhHWIrU3HRFX-4" target="ZN-Y_XalxhHWIrU3HRFX-11" edge="1">
          <mxGeometry relative="1" as="geometry">
            <Array as="points">
              <mxPoint x="290" y="470" />
              <mxPoint x="290" y="445" />
            </Array>
          </mxGeometry>
        </mxCell>
        <mxCell id="ZN-Y_XalxhHWIrU3HRFX-20" style="edgeStyle=orthogonalEdgeStyle;rounded=0;orthogonalLoop=1;jettySize=auto;html=1;exitX=0.5;exitY=0.5;exitDx=0;exitDy=0;exitPerimeter=0;entryX=0;entryY=0.5;entryDx=0;entryDy=0;strokeColor=#00FF00;jumpStyle=none;" parent="WIyWlLk6GJQsqaUBKTNV-1" source="ZN-Y_XalxhHWIrU3HRFX-4" target="ZN-Y_XalxhHWIrU3HRFX-13" edge="1">
          <mxGeometry relative="1" as="geometry" />
        </mxCell>
        <mxCell id="ZN-Y_XalxhHWIrU3HRFX-25" style="edgeStyle=orthogonalEdgeStyle;rounded=0;orthogonalLoop=1;jettySize=auto;html=1;exitX=0.5;exitY=0.5;exitDx=0;exitDy=0;exitPerimeter=0;strokeColor=#00FF00;" parent="WIyWlLk6GJQsqaUBKTNV-1" source="ZN-Y_XalxhHWIrU3HRFX-4" edge="1">
          <mxGeometry relative="1" as="geometry">
            <mxPoint x="380" y="220" as="targetPoint" />
          </mxGeometry>
        </mxCell>
        <mxCell id="ZN-Y_XalxhHWIrU3HRFX-26" style="edgeStyle=orthogonalEdgeStyle;rounded=0;orthogonalLoop=1;jettySize=auto;html=1;exitX=0.5;exitY=0.5;exitDx=0;exitDy=0;exitPerimeter=0;entryX=0;entryY=0.5;entryDx=0;entryDy=0;strokeColor=#00FF00;" parent="WIyWlLk6GJQsqaUBKTNV-1" source="ZN-Y_XalxhHWIrU3HRFX-4" target="ZN-Y_XalxhHWIrU3HRFX-14" edge="1">
          <mxGeometry relative="1" as="geometry">
            <Array as="points">
              <mxPoint x="269" y="470" />
              <mxPoint x="269" y="720" />
              <mxPoint x="389" y="720" />
            </Array>
          </mxGeometry>
        </mxCell>
        <mxCell id="ZN-Y_XalxhHWIrU3HRFX-29" style="edgeStyle=orthogonalEdgeStyle;rounded=0;orthogonalLoop=1;jettySize=auto;html=1;exitX=0.5;exitY=0.5;exitDx=0;exitDy=0;exitPerimeter=0;entryX=0;entryY=0.5;entryDx=0;entryDy=0;strokeColor=#00FF00;" parent="WIyWlLk6GJQsqaUBKTNV-1" source="ZN-Y_XalxhHWIrU3HRFX-4" target="ZN-Y_XalxhHWIrU3HRFX-12" edge="1">
          <mxGeometry relative="1" as="geometry" />
        </mxCell>
        <mxCell id="ZN-Y_XalxhHWIrU3HRFX-4" value="LECTURER" style="shape=umlActor;verticalLabelPosition=bottom;verticalAlign=top;html=1;outlineConnect=0;" parent="WIyWlLk6GJQsqaUBKTNV-1" vertex="1">
          <mxGeometry x="120" y="440" width="30" height="60" as="geometry" />
        </mxCell>
        <mxCell id="ZN-Y_XalxhHWIrU3HRFX-27" style="edgeStyle=orthogonalEdgeStyle;rounded=0;orthogonalLoop=1;jettySize=auto;html=1;exitX=0.5;exitY=0.5;exitDx=0;exitDy=0;exitPerimeter=0;entryX=1;entryY=0.5;entryDx=0;entryDy=0;strokeColor=#00FF00;" parent="WIyWlLk6GJQsqaUBKTNV-1" source="ZN-Y_XalxhHWIrU3HRFX-5" target="ZN-Y_XalxhHWIrU3HRFX-8" edge="1">
          <mxGeometry relative="1" as="geometry" />
        </mxCell>
        <mxCell id="ZN-Y_XalxhHWIrU3HRFX-5" value="DEVELOPER" style="shape=umlActor;verticalLabelPosition=bottom;verticalAlign=top;html=1;outlineConnect=0;" parent="WIyWlLk6GJQsqaUBKTNV-1" vertex="1">
          <mxGeometry x="690" y="230" width="30" height="60" as="geometry" />
        </mxCell>
        <mxCell id="ZN-Y_XalxhHWIrU3HRFX-30" style="edgeStyle=orthogonalEdgeStyle;rounded=0;orthogonalLoop=1;jettySize=auto;html=1;exitX=0.5;exitY=0.5;exitDx=0;exitDy=0;exitPerimeter=0;entryX=1;entryY=0.5;entryDx=0;entryDy=0;strokeColor=#00FF00;" parent="WIyWlLk6GJQsqaUBKTNV-1" source="ZN-Y_XalxhHWIrU3HRFX-6" target="ZN-Y_XalxhHWIrU3HRFX-15" edge="1">
          <mxGeometry relative="1" as="geometry" />
        </mxCell>
        <mxCell id="ZN-Y_XalxhHWIrU3HRFX-31" style="edgeStyle=orthogonalEdgeStyle;rounded=0;orthogonalLoop=1;jettySize=auto;html=1;exitX=0.5;exitY=0.5;exitDx=0;exitDy=0;exitPerimeter=0;entryX=1;entryY=0.5;entryDx=0;entryDy=0;strokeColor=#00FF00;" parent="WIyWlLk6GJQsqaUBKTNV-1" source="ZN-Y_XalxhHWIrU3HRFX-6" target="ZN-Y_XalxhHWIrU3HRFX-12" edge="1">
          <mxGeometry relative="1" as="geometry" />
        </mxCell>
        <mxCell id="ZN-Y_XalxhHWIrU3HRFX-32" style="edgeStyle=orthogonalEdgeStyle;rounded=0;orthogonalLoop=1;jettySize=auto;html=1;exitX=0.5;exitY=0.5;exitDx=0;exitDy=0;exitPerimeter=0;entryX=1;entryY=0.5;entryDx=0;entryDy=0;strokeColor=#00FF00;" parent="WIyWlLk6GJQsqaUBKTNV-1" source="ZN-Y_XalxhHWIrU3HRFX-6" target="ZN-Y_XalxhHWIrU3HRFX-11" edge="1">
          <mxGeometry relative="1" as="geometry" />
        </mxCell>
        <mxCell id="ZN-Y_XalxhHWIrU3HRFX-33" style="edgeStyle=orthogonalEdgeStyle;rounded=0;orthogonalLoop=1;jettySize=auto;html=1;exitX=0.5;exitY=0.5;exitDx=0;exitDy=0;exitPerimeter=0;entryX=1;entryY=0.5;entryDx=0;entryDy=0;strokeColor=#00FF00;" parent="WIyWlLk6GJQsqaUBKTNV-1" source="ZN-Y_XalxhHWIrU3HRFX-6" target="ZN-Y_XalxhHWIrU3HRFX-10" edge="1">
          <mxGeometry relative="1" as="geometry" />
        </mxCell>
        <mxCell id="ZN-Y_XalxhHWIrU3HRFX-6" value="DEPARTMENT" style="shape=umlActor;verticalLabelPosition=bottom;verticalAlign=top;html=1;outlineConnect=0;" parent="WIyWlLk6GJQsqaUBKTNV-1" vertex="1">
          <mxGeometry x="690" y="420" width="30" height="60" as="geometry" />
        </mxCell>
        <mxCell id="ZN-Y_XalxhHWIrU3HRFX-8" value="LOGIN" style="ellipse;whiteSpace=wrap;html=1;fillColor=#FF99CC;" parent="WIyWlLk6GJQsqaUBKTNV-1" vertex="1">
          <mxGeometry x="391.5" y="200" width="97" height="40" as="geometry" />
        </mxCell>
        <mxCell id="ZN-Y_XalxhHWIrU3HRFX-9" value="SEARCH&amp;nbsp; COURSE" style="ellipse;whiteSpace=wrap;html=1;fillColor=#FF99CC;" parent="WIyWlLk6GJQsqaUBKTNV-1" vertex="1">
          <mxGeometry x="388.5" y="270" width="100" height="50" as="geometry" />
        </mxCell>
        <mxCell id="ZN-Y_XalxhHWIrU3HRFX-10" value="ADD COURSE" style="ellipse;whiteSpace=wrap;html=1;fillColor=#FF99CC;" parent="WIyWlLk6GJQsqaUBKTNV-1" vertex="1">
          <mxGeometry x="391.5" y="340" width="90" height="60" as="geometry" />
        </mxCell>
        <mxCell id="ZN-Y_XalxhHWIrU3HRFX-11" value="ADD MATERIAL&amp;nbsp;" style="ellipse;whiteSpace=wrap;html=1;fillColor=#FF99CC;" parent="WIyWlLk6GJQsqaUBKTNV-1" vertex="1">
          <mxGeometry x="385.5" y="420" width="96" height="50" as="geometry" />
        </mxCell>
        <mxCell id="ZN-Y_XalxhHWIrU3HRFX-12" value="QUERIES" style="ellipse;whiteSpace=wrap;html=1;fillColor=#FF99CC;" parent="WIyWlLk6GJQsqaUBKTNV-1" vertex="1">
          <mxGeometry x="390.5" y="540" width="90" height="50" as="geometry" />
        </mxCell>
        <mxCell id="ZN-Y_XalxhHWIrU3HRFX-13" value="ADD TOPIC" style="ellipse;whiteSpace=wrap;html=1;fillColor=#FF99CC;" parent="WIyWlLk6GJQsqaUBKTNV-1" vertex="1">
          <mxGeometry x="387.5" y="480" width="93" height="45" as="geometry" />
        </mxCell>
        <mxCell id="ZN-Y_XalxhHWIrU3HRFX-14" value="LOG OUT" style="ellipse;whiteSpace=wrap;html=1;fillColor=#FF99CC;" parent="WIyWlLk6GJQsqaUBKTNV-1" vertex="1">
          <mxGeometry x="389" y="680" width="90" height="50" as="geometry" />
        </mxCell>
        <mxCell id="ZN-Y_XalxhHWIrU3HRFX-15" value="ENROLL" style="ellipse;whiteSpace=wrap;html=1;fillColor=#FF99CC;" parent="WIyWlLk6GJQsqaUBKTNV-1" vertex="1">
          <mxGeometry x="390.5" y="610" width="86" height="50" as="geometry" />
        </mxCell>
        <mxCell id="ZN-Y_XalxhHWIrU3HRFX-16" value="&lt;font color=&quot;#ffffff&quot;&gt;&lt;b&gt;SYSTEM&lt;/b&gt;&lt;/font&gt;" style="text;html=1;align=center;verticalAlign=middle;resizable=0;points=[];autosize=1;strokeColor=none;fillColor=none;" parent="WIyWlLk6GJQsqaUBKTNV-1" vertex="1">
          <mxGeometry x="399" y="160" width="70" height="30" as="geometry" />
        </mxCell>
        <mxCell id="ZN-Y_XalxhHWIrU3HRFX-24" style="edgeStyle=orthogonalEdgeStyle;rounded=0;orthogonalLoop=1;jettySize=auto;html=1;exitX=0.5;exitY=0.5;exitDx=0;exitDy=0;exitPerimeter=0;entryX=0;entryY=0.5;entryDx=0;entryDy=0;strokeColor=#00FF00;" parent="WIyWlLk6GJQsqaUBKTNV-1" source="ZN-Y_XalxhHWIrU3HRFX-3" target="ZN-Y_XalxhHWIrU3HRFX-14" edge="1">
          <mxGeometry relative="1" as="geometry" />
        </mxCell>
      </root>
    </mxGraphModel>
  </diagram>
</mxfile>
